<?xml version="1.0" encoding="utf-8"?>
<!-- Generator: Adobe Illustrator 19.2.1, SVG Export Plug-In . SVG Version: 6.00 Build 0)  -->
<svg version="1.1" id="DESIGNED_BY_FREEPIK" xmlns="http://www.w3.org/2000/svg" xmlns:xlink="http://www.w3.org/1999/xlink"
	 x="0px" y="0px" viewBox="0 0 49.5 23.2" style="enable-background:new 0 0 49.5 23.2;" xml:space="preserve">
<style type="text/css">
	.st0{fill:#FFFFFF;}
</style>
<path class="st0" d="M48.9,23.2c0.4-1,0.6-2,0.6-3.1c0-1.5-0.4-2.9-1.1-4.2c-0.3-0.7-0.9-1.2-1.3-1.8c-0.7-0.8-1.6-1.4-2.6-1.7
	c-1-0.5-2-0.7-3.2-0.7c-0.7,0.1-1.5,0.2-2.2,0.3H39c-0.8-1.4-2.3-2.4-4-2.5c0.1-1,0-2-0.3-3c-0.4-1.5-1.2-2.8-2.2-3.9
	c-1.1-1.1-2.4-1.8-3.9-2.2h-0.1c-0.4-0.1-0.8-0.1-1.2-0.2C26.9,0.1,26.5,0,26.1,0c-1.6,0-3,0.4-4.4,1.2C20.4,2,19.4,3,18.6,4.3
	c-0.6,1-0.9,2-1.1,3.1c-0.5-0.1-1.1-0.2-1.7-0.2c-1,0-1.9,0.2-2.8,0.6c-0.9,0.3-1.7,0.8-2.3,1.5C10,10,9.5,10.7,9.2,11.6
	c-0.1,0.1-0.1,0.2-0.2,0.3c-1.7-0.1-3.5,0.4-4.9,1.1c-1.7,1-3.4,3-3.8,5c-0.4,1.7-0.4,3.5,0.2,5.1L48.9,23.2L48.9,23.2z"/>
</svg>
