<?xml version="1.0" encoding="utf-8"?>
<!-- Generator: Adobe Illustrator 19.2.1, SVG Export Plug-In . SVG Version: 6.00 Build 0)  -->
<svg version="1.1" id="DESIGNED_BY_FREEPIK" xmlns="http://www.w3.org/2000/svg" xmlns:xlink="http://www.w3.org/1999/xlink"
	 x="0px" y="0px" viewBox="0 0 35.2 17.1" style="enable-background:new 0 0 35.2 17.1;" xml:space="preserve">
<style type="text/css">
	.st0{fill:#FFFFFF;}
</style>
<path class="st0" d="M0.5,17.1H35c0.2-0.5,0.2-1,0.2-1.5L35,14.2c-0.2-0.9-0.7-1.6-1.3-2.3c-0.4-0.3-0.7-0.5-1.1-0.8
	c-0.8-0.5-1.7-0.7-2.6-0.7c-0.3,0-0.6,0-0.9,0.1L29,9.6c-0.3-1.2-1-2.3-1.9-3.2l-1.5-1.1c-1.1-0.7-2.4-1-3.7-1c-1,0-2,0.2-2.8,0.6
	c-0.3,0.1-0.5,0.2-0.8,0.3C17.5,2.3,14.9,0,11.6,0C8,0,4.5,3.2,4.6,7c0,0.9,0.2,1.8,0.6,2.6C2.4,9.9-0.1,12.4,0,15.3
	C0.2,15.9,0.3,16.5,0.5,17.1z"/>
</svg>
