<?xml version="1.0" encoding="utf-8"?>
<!-- Generator: Adobe Illustrator 19.2.1, SVG Export Plug-In . SVG Version: 6.00 Build 0)  -->
<svg version="1.1" id="DESIGNED_BY_FREEPIK" xmlns="http://www.w3.org/2000/svg" xmlns:xlink="http://www.w3.org/1999/xlink"
	 x="0px" y="0px" viewBox="0 0 814.7 132.4" style="enable-background:new 0 0 814.7 132.4;" xml:space="preserve">
<style type="text/css">
	.st0{fill:#5EB94D;}
	.st1{fill:#9FDC57;}
	.st2{fill:#688C00;}
	.st3{fill:#87C54F;}
	.st4{fill:none;stroke:#308E31;stroke-width:2;stroke-miterlimit:10;}
	.st5{fill:#FC9BAA;}
	.st6{fill:#FFCDBD;}
	.st7{fill:#308E31;}
	.st8{fill:#FFD01F;}
	.st9{fill:#FFECA5;}
	.st10{enable-background:new    ;}
	.st11{fill:#5D5D5D;}
	.st12{fill:#FFFFFF;}
</style>
<g>
	<path class="st0" d="M581.2,0c-36.4,0-95,22-135.6,76.9L584,66.7h135.6C679,10.7,617.5,0,581.2,0z"/>
	<g>
		<path class="st1" d="M783.2,52.3l31.5-7.8V17.7c-23,1.5-76.4,8.8-114.1,34.8C727.2,59.7,756.6,59.7,783.2,52.3z"/>
		<path class="st2" d="M286.4,96.2C174.7,110.1,35.9,98.3,0,95.2v31.1c68.2-5.8,272.1-21.9,445.5-27.2
			c175-5.4,324.2,15.1,369.2,22.7V96.7C771.7,94,452.4,75.6,286.4,96.2z"/>
		<path class="st3" d="M782.8,51c-26.5,7.4-54.3,7.8-80.9,0.6l0,0c-0.1,0-0.1-0.1-0.2-0.1c-10.5-2.9-20.2-6.6-27.3-11.5
			c-26.9-18.6-54-25.3-74-25.3c-18.8,0-44.1,7.7-67.9,21.6c-17.8,10.4-29.6,21-85,34.1C395.7,82.6,89,75.4,0,30.2v34.9v10.1v24.6
			c36,3.1,174.9,13.1,286.6-0.8c166-20.7,485.1-2.9,528.1-0.3V42.1L782.8,51z"/>
	</g>
	<g>
		<path class="st1" d="M112.8,83.4h27.9c2.5,0,4.6-2.1,4.6-4.6l0,0c0-2.5-2.1-4.6-4.6-4.6h-27.9c-2.5,0-4.6,2.1-4.6,4.6l0,0
			C108.2,81.3,110.3,83.4,112.8,83.4z"/>
		<g>
			<g>
				<line class="st4" x1="119.4" y1="37.7" x2="119.4" y2="78.7"/>
				<g>
					<path class="st5" d="M113.4,22.8l2.4,3.6l0.2-0.2v15.7c-2.3,0-7.7-1.6-7.7-8.3C108.3,28.1,113.4,22.8,113.4,22.8z"/>
					<path class="st5" d="M124.5,22.8l-2.4,3.6l-0.2-0.2v15.7c2.3,0,7.6-1.8,7.7-8.3C129.7,28.5,124.5,22.8,124.5,22.8z"/>
					<path class="st6" d="M116.1,22.1l2.6,3.9l3.2-3.9c0,0,5.8,5.7,5.5,11.6c-0.4,8.4-5.9,8.9-8.4,8.9s-8.6-0.5-8.4-8.9
						C110.8,28.3,116.1,22.1,116.1,22.1z"/>
				</g>
				<path class="st7" d="M118.9,78.6c0,0-2.4-27.7-14.8-35.1C104.1,43.6,106.8,80.6,118.9,78.6z"/>
				<path class="st7" d="M120,78.6c0,0-0.6-14.8,13.1-23.3C133.1,55.3,132.1,80.6,120,78.6z"/>
			</g>
			<g>
				<line class="st4" x1="135.4" y1="57.7" x2="135.4" y2="78.7"/>
				<g>
					<path class="st8" d="M129.4,40.2l2.4,3.6l0.2-0.2v15.7c-2.3,0-7.7-1.6-7.7-8.3C124.3,45.5,129.4,40.2,129.4,40.2z"/>
					<path class="st8" d="M140.5,40.2l-2.4,3.6l-0.2-0.2v15.7c2.3,0,7.6-1.8,7.7-8.3C145.7,45.9,140.5,40.2,140.5,40.2z"/>
					<path class="st9" d="M132.1,39.5l2.6,3.9l3.2-3.9c0,0,5.1,5.5,5.5,11.6c0.5,8.4-5.9,8.9-8.4,8.9s-8.8-0.5-8.4-8.9
						C127,44.3,132.1,39.5,132.1,39.5z"/>
				</g>
				<path class="st0" d="M134.9,78.6c0,0-0.7-16-13.1-23.3C121.8,55.3,122.8,80.6,134.9,78.6z"/>
				<path class="st0" d="M135.6,78.6c0,0,0.7-16,13.1-23.3C148.7,55.3,147.7,80.6,135.6,78.6z"/>
			</g>
		</g>
	</g>
	<g>
		<path class="st1" d="M81.5,65.1H52.8c-2.6,0-4.7-2.1-4.7-4.7l0,0c0-2.6,2.1-4.7,4.7-4.7h28.7c2.6,0,4.7,2.1,4.7,4.7l0,0
			C86.2,63,84.1,65.1,81.5,65.1z"/>
		<g>
			<g>
				<line class="st4" x1="74.4" y1="17.7" x2="74.4" y2="59.7"/>
				<g>
					<path class="st5" d="M80.9,2.9l-2.5,3.7l-0.2-0.2v16.1c2.4,0,7.9-1.7,7.9-8.6C86.1,8.3,80.9,2.9,80.9,2.9z"/>
					<path class="st5" d="M69.4,2.9l2.5,3.7l0.2-0.2v16.1c-2.4,0-7.8-1.8-7.9-8.6C64.1,8.7,69.4,2.9,69.4,2.9z"/>
					<path class="st6" d="M78.1,2.1l-2.6,4l-3.3-4c0,0-5.9,5.9-5.7,11.9c0.4,8.7,6.1,9.2,8.6,9.2s8.8-0.5,8.6-9.2
						C83.6,8.4,78.1,2.1,78.1,2.1z"/>
				</g>
				<path class="st7" d="M75.2,60.2c0,0,2.4-28.5,15.2-36.1C90.4,24.2,87.6,62.2,75.2,60.2z"/>
				<path class="st7" d="M74,60.2c0,0,0.6-15.2-13.5-24C60.6,36.2,61.6,62.2,74,60.2z"/>
			</g>
			<g>
				<line class="st4" x1="58.4" y1="38.7" x2="58.4" y2="59.7"/>
				<g>
					<path class="st8" d="M64.4,20.7l-2.5,3.7l-0.2-0.2v16.1c2.4,0,7.9-1.7,7.9-8.6C69.7,26.2,64.4,20.7,64.4,20.7z"/>
					<path class="st8" d="M53,20.7l2.5,3.7l0.2-0.2v16.1c-2.4,0-7.8-1.8-7.9-8.6C47.7,26.6,53,20.7,53,20.7z"/>
					<path class="st9" d="M61.6,20L59,24l-3.3-4c0,0-5.2,5.6-5.7,11.9c-0.6,8.7,6.1,9.2,8.6,9.2s9.1-0.5,8.6-9.2
						C66.9,24.9,61.6,20,61.6,20z"/>
				</g>
				<path class="st0" d="M58.8,60.2c0,0,0.7-16.4,13.5-24C72.2,36.2,71.2,62.2,58.8,60.2z"/>
				<path class="st0" d="M58.1,60.2c0,0-0.7-16.4-13.5-24C44.6,36.2,45.6,62.2,58.1,60.2z"/>
			</g>
		</g>
	</g>
	<g class="st10">
		<path class="st11" d="M574.2,41.8v-1.1h-5.1v4.2h3.8v-0.8h2.5v4.1h-2.5v-0.8h-3.8V53h1v2.5h-4.9V53h1V40.6h-1V38h11.5v3.7
			L574.2,41.8L574.2,41.8z"/>
		<path class="st11" d="M584.7,53.3c1,0,1.9-0.3,2.7-0.9h3.6c-0.6,1.1-1.5,2-2.6,2.7s-2.4,1-3.7,1c-2,0-3.6-0.7-5-2
			s-2.1-2.9-2.1-4.8c0-1.9,0.7-3.5,2.1-4.8c1.4-1.3,3.1-2,5-2c1.4,0,2.7,0.4,3.9,1.1c1.2,0.7,2,1.7,2.6,2.9c0.3,0.8,0.5,1.7,0.6,2.8
			l-11,1.6c0.3,0.7,0.8,1.3,1.5,1.8s1.1,0.7,1.1,0.7S583.8,53.3,584.7,53.3z M584.7,45.2c-0.9,0-1.8,0.3-2.5,0.8s-1.2,1.2-1.5,2
			l7.5-1.1c-0.4-0.5-0.9-0.9-1.5-1.3C586,45.4,585.4,45.2,584.7,45.2z"/>
		<path class="st11" d="M596.9,44.8c0.4-0.6,1-1.2,1.6-1.6c0.6-0.4,1.3-0.6,2-0.6s1.3,0.3,1.9,0.7c0.6,0.5,1.1,1.3,1.4,2.4
			c-0.8,0.3-1.7,0.6-2.6,0.9c-0.3-0.8-0.6-1.2-1.1-1.4c-0.4-0.1-0.8-0.1-1.3,0.2c-0.4,0.3-0.8,0.7-1.1,1.2s-0.5,0.9-0.6,1.4
			c0,0.1,0,0.2,0,0.3v4.8h1v2.3h-4.7v-2.3h1v-7.9H593V43h1.4h2.7v1.8H596.9z"/>
		<path class="st11" d="M627.7,53.3v2.3H623v-2.3h1v-5.9c-0.2-1-0.5-1.7-1.2-2c-0.5-0.3-1.2-0.3-2,0c-0.7,0.2-1.3,0.6-2,1.1
			c-0.6,0.5-1,1-1.2,1.5c0,0.6,0,1.2,0,1.9v3.4h1v2.3h-4.7v-2.3h1v-5.9c-0.2-1.1-0.6-1.7-1.2-2.1c-0.6-0.3-1.2-0.3-2,0
			c-0.7,0.3-1.4,0.7-2,1.2c-0.6,0.6-1,1.1-1.1,1.5v5.2h0.9v2.3h-4.7v-2.3h1v-5.1c0-0.1,0-0.2,0-0.4v-2.5h-1.5V43h4.3v1.5
			c1.6-1.2,3.2-1.8,4.7-1.9c1.8-0.1,3.1,0.7,3.8,2.3c0.9-0.7,1.8-1.3,2.8-1.7c1.1-0.5,2.1-0.7,3-0.6c1,0,1.9,0.4,2.5,1.2
			c0.7,0.8,1.2,2,1.3,3.6c0,0.4,0,1.3,0,2.6v3.4L627.7,53.3L627.7,53.3z"/>
		<path class="st11" d="M630.3,54c-1.4-1.3-2.1-2.9-2.1-4.8s0.7-3.5,2.1-4.8c1.4-1.3,3-2,5-2c1.9,0,3.6,0.7,5,2s2.1,2.9,2.1,4.8
			s-0.7,3.5-2.1,4.8c-1.4,1.3-3,2-5,2C633.4,56,631.7,55.4,630.3,54z M632.3,46.4c-0.8,0.8-1.3,1.7-1.3,2.9s0.4,2.1,1.3,2.8
			c0.8,0.8,1.8,1.2,3,1.2s2.2-0.4,3-1.2s1.3-1.7,1.3-2.8s-0.4-2.1-1.3-2.9c-0.8-0.8-1.8-1.2-3-1.2S633.1,45.6,632.3,46.4z"/>
	</g>
	<g class="st10">
		<path class="st11" d="M559.6,62.1l4.6,15h1.4v2.5H562l-1.3-4.3H555l-1.3,4.3h-3.2v-2.5h1.1l3.9-12.7h-0.7v-2.3
			C554.8,62.1,559.6,62.1,559.6,62.1z M555.9,72.5h4l-2-6.5L555.9,72.5z"/>
		<path class="st11" d="M574.8,76c0.1,1.1-0.2,2-0.9,2.7c-0.8,0.8-1.9,1.3-3.5,1.3c-0.8,0-2.1-0.3-4.1-1h-0.2v-2.7h2.3v0.9
			c0.6,0.3,1.2,0.4,1.9,0.4s1.2-0.2,1.5-0.5c0.2-0.2,0.3-0.6,0.3-0.9c0-0.4-0.2-0.7-0.4-1c-0.3-0.3-0.8-0.6-1.6-0.9
			c-2.4-0.8-3.7-2.1-3.8-3.9c-0.1-1,0.2-1.9,0.8-2.5c0.8-0.8,1.8-1.2,3.3-1.2c0.7,0,1.3,0.1,2,0.3c0,0,0.2,0,0.3,0.1
			c1,0.3,1.6,0.5,1.8,0.5l0.1,0.1v2.7h-2.3v-0.9c-0.5-0.2-1.1-0.4-1.8-0.4c-0.6,0-1,0.1-1.3,0.4c-0.2,0.2-0.3,0.5-0.2,0.8
			c0,0.4,0.2,0.7,0.4,0.9c0.3,0.3,0.9,0.6,1.7,0.9c1.2,0.4,2.1,1,2.7,1.6C574.3,74.2,574.7,75,574.8,76z"/>
		<path class="st11" d="M580.1,67v10.1h1.5v2.4h-5.7v-2.4h1.5v-7.7h-1.5V67H580.1z M578.5,66c-0.5,0-0.8-0.2-1.1-0.5
			s-0.5-0.7-0.5-1.2s0.2-0.9,0.5-1.2s0.7-0.5,1.1-0.5s0.8,0.2,1.2,0.5c0.3,0.3,0.5,0.7,0.5,1.2s-0.2,0.9-0.5,1.2
			C579.3,65.9,579,66,578.5,66z"/>
		<path class="st11" d="M586.7,62.5v14.6h1.5v2.5h-5.9v-2.5h1.5V65h-1.5v-2.5H586.7z"/>
		<path class="st11" d="M590.9,78c-1.4-1.3-2.1-2.9-2.1-4.8s0.7-3.5,2.1-4.8c1.4-1.3,3-2,5-2c1.9,0,3.6,0.7,5,2s2.1,2.9,2.1,4.8
			s-0.7,3.5-2.1,4.8c-1.4,1.3-3,2-5,2S592.3,79.4,590.9,78z M592.9,70.4c-0.8,0.8-1.3,1.7-1.3,2.9c0,1.1,0.4,2.1,1.3,2.8
			c0.8,0.8,1.8,1.2,3,1.2s2.2-0.4,3-1.2c0.8-0.8,1.3-1.7,1.3-2.8c0-1.1-0.4-2.1-1.3-2.9c-0.8-0.8-1.8-1.2-3-1.2
			C594.7,69.2,593.7,69.6,592.9,70.4z"/>
		<path class="st11" d="M618.9,61.9v2.5h-1V77h1v2.5h-5.7L607.8,65v12h1v2.5h-4.9V77h1V64.4h-1v-2.5h5.7l5.4,14.7V64.4h-1v-2.5
			H618.9z"/>
		<path class="st11" d="M624.2,67v10.1h1.5v2.4H620v-2.4h1.5v-7.7H620V67H624.2z M622.7,66c-0.5,0-0.8-0.2-1.1-0.5s-0.5-0.7-0.5-1.2
			s0.2-0.9,0.5-1.2s0.7-0.5,1.1-0.5s0.8,0.2,1.2,0.5c0.3,0.3,0.5,0.7,0.5,1.2s-0.2,0.9-0.5,1.2C623.5,65.9,623.1,66,622.7,66z"/>
		<path class="st11" d="M637.8,67.7v-5.3h3.8v2.5h-1v12.2h1v2.5h-3.8v-1c-1.3,0.9-2.7,1.4-4.3,1.4c-1.9,0-3.6-0.7-5-2
			s-2.1-2.9-2.1-4.8s0.7-3.5,2.1-4.8c1.4-1.3,3-2,5-2C635.1,66.3,636.6,66.8,637.8,67.7z M636.5,76c0.8-0.8,1.3-1.7,1.3-2.9
			s-0.4-2.1-1.3-2.9c-0.8-0.8-1.8-1.2-3-1.2s-2.2,0.4-3,1.2c-0.8,0.8-1.3,1.8-1.3,2.9s0.4,2.1,1.3,2.9c0.8,0.8,1.8,1.2,3,1.2
			S635.7,76.8,636.5,76z"/>
		<path class="st11" d="M644.4,78c-1.4-1.3-2.1-2.9-2.1-4.8s0.7-3.5,2.1-4.8c1.4-1.3,3-2,5-2c1.9,0,3.6,0.7,5,2s2.1,2.9,2.1,4.8
			s-0.7,3.5-2.1,4.8c-1.4,1.3-3,2-5,2S645.8,79.4,644.4,78z M646.4,70.4c-0.8,0.8-1.3,1.7-1.3,2.9c0,1.1,0.4,2.1,1.3,2.8
			c0.8,0.8,1.8,1.2,3,1.2s2.2-0.4,3-1.2c0.8-0.8,1.3-1.7,1.3-2.8c0-1.1-0.4-2.1-1.3-2.9c-0.8-0.8-1.8-1.2-3-1.2
			C648.2,69.2,647.2,69.6,646.4,70.4z"/>
	</g>
	<g class="st10">
		<path class="st12" d="M572.2,41.5v-1.1h-5.1v4.2h3.8v-0.8h2.5v4.1h-2.5v-0.8h-3.8v5.6h1v2.5h-4.9v-2.5h1V40.3h-1v-2.6h11.5v3.7
			L572.2,41.5L572.2,41.5z"/>
		<path class="st12" d="M582.7,53c1,0,1.9-0.3,2.7-0.9h3.6c-0.6,1.1-1.5,2-2.6,2.7s-2.4,1-3.7,1c-2,0-3.6-0.7-5-2s-2.1-2.9-2.1-4.8
			c0-1.9,0.7-3.5,2.1-4.8c1.4-1.3,3.1-2,5-2c1.4,0,2.7,0.4,3.9,1.1c1.2,0.7,2,1.7,2.6,2.9c0.3,0.8,0.5,1.7,0.6,2.8l-11,1.6
			c0.3,0.7,0.8,1.3,1.5,1.8s1.1,0.7,1.1,0.7S581.8,53,582.7,53z M582.7,44.9c-0.9,0-1.8,0.3-2.5,0.8s-1.2,1.2-1.5,2l7.5-1.1
			c-0.4-0.5-0.9-0.9-1.5-1.3C584,45.1,583.4,44.9,582.7,44.9z"/>
		<path class="st12" d="M594.9,44.5c0.4-0.6,1-1.2,1.6-1.6c0.6-0.4,1.3-0.6,2-0.6s1.3,0.3,1.9,0.7c0.6,0.5,1.1,1.3,1.4,2.4
			c-0.8,0.3-1.7,0.6-2.6,0.9c-0.3-0.8-0.6-1.2-1.1-1.4c-0.4-0.1-0.8-0.1-1.3,0.2c-0.4,0.3-0.8,0.7-1.1,1.2s-0.5,0.9-0.6,1.4
			c0,0.1,0,0.2,0,0.3v5h1v2.3h-4.7V53h1v-7.9H591v-2.4h1.4h2.7v1.8H594.9z"/>
		<path class="st12" d="M625.7,53v2.3H621V53h1v-5.9c-0.2-1-0.5-1.7-1.2-2c-0.5-0.3-1.2-0.3-2,0c-0.7,0.2-1.3,0.6-2,1.1
			c-0.6,0.5-1,1-1.2,1.5c0,0.6,0,1.2,0,1.9V53h1v2.3h-4.7V53h1v-5.9c-0.2-1.1-0.6-1.7-1.2-2.1c-0.6-0.3-1.2-0.3-2,0
			c-0.7,0.3-1.4,0.7-2,1.2c-0.6,0.6-1,1.1-1.1,1.5V53h0.9v2.3h-4.7V53h1v-5c0-0.1,0-0.2,0-0.4v-2.5h-1.5v-2.4h4.3v1.5
			c1.6-1.2,3.2-1.8,4.7-1.9c1.8-0.1,3.1,0.7,3.8,2.3c0.9-0.7,1.8-1.3,2.8-1.7c1.1-0.5,2.1-0.7,3-0.6c1,0,1.9,0.4,2.5,1.2
			c0.7,0.8,1.2,2,1.3,3.6c0,0.4,0,1.3,0,2.6V53H625.7z"/>
		<path class="st12" d="M628.3,53.7c-1.4-1.3-2.1-2.9-2.1-4.8s0.7-3.5,2.1-4.8c1.4-1.3,3-2,5-2c1.9,0,3.6,0.7,5,2s2.1,2.9,2.1,4.8
			s-0.7,3.5-2.1,4.8c-1.4,1.3-3,2-5,2C631.4,55.7,629.7,55.1,628.3,53.7z M630.3,46.1c-0.8,0.8-1.3,1.7-1.3,2.9s0.4,2.1,1.3,2.8
			c0.8,0.8,1.8,1.2,3,1.2s2.2-0.4,3-1.2s1.3-1.7,1.3-2.8s-0.4-2.1-1.3-2.9c-0.8-0.8-1.8-1.2-3-1.2C632.1,44.9,631.1,45.3,630.3,46.1
			z"/>
	</g>
	<g class="st10">
		<path class="st12" d="M557.6,61.8l4.6,15h1.4v2.5H560l-1.3-4.3H553l-1.3,4.3h-3.2v-2.5h1.1l3.9-12.7h-0.7v-2.3
			C552.8,61.8,557.6,61.8,557.6,61.8z M553.9,72.2h4l-2-6.5L553.9,72.2z"/>
		<path class="st12" d="M572.7,75.7c0.1,1.1-0.2,2-0.9,2.7c-0.8,0.8-1.9,1.3-3.5,1.3c-0.8,0-2.1-0.3-4.1-1H564V76h2.3v0.9
			c0.6,0.3,1.2,0.4,1.9,0.4s1.2-0.2,1.5-0.5c0.2-0.2,0.3-0.6,0.3-0.9c0-0.4-0.2-0.7-0.4-1c-0.3-0.3-0.8-0.6-1.6-0.9
			c-2.4-0.8-3.7-2.1-3.8-3.9c-0.1-1,0.2-1.9,0.8-2.5c0.8-0.8,1.8-1.2,3.3-1.2c0.7,0,1.3,0.1,2,0.3c0,0,0.2,0,0.3,0.1
			c1,0.3,1.6,0.5,1.8,0.5l0.1,0.1V70h-2.3v-0.9c-0.5-0.2-1.1-0.4-1.8-0.4c-0.6,0-1,0.1-1.3,0.4c-0.2,0.2-0.3,0.5-0.2,0.8
			c0,0.4,0.2,0.7,0.4,0.9c0.3,0.3,0.9,0.6,1.7,0.9c1.2,0.4,2.1,1,2.7,1.6C572.3,73.9,572.7,74.7,572.7,75.7z"/>
		<path class="st12" d="M578,66.7v10.1h1.5v2.4h-5.7v-2.4h1.5v-7.7h-1.5v-2.4H578z M576.5,65.7c-0.5,0-0.8-0.2-1.1-0.5
			s-0.5-0.7-0.5-1.2c0-0.5,0.2-0.9,0.5-1.2s0.7-0.5,1.1-0.5s0.8,0.2,1.2,0.5c0.3,0.3,0.5,0.7,0.5,1.2c0,0.5-0.2,0.9-0.5,1.2
			C577.3,65.6,576.9,65.7,576.5,65.7z"/>
		<path class="st12" d="M584.7,62.2v14.6h1.5v2.5h-5.9v-2.5h1.5V64.7h-1.5v-2.5C580.3,62.2,584.7,62.2,584.7,62.2z"/>
		<path class="st12" d="M588.9,77.7c-1.4-1.3-2.1-2.9-2.1-4.8s0.7-3.5,2.1-4.8c1.4-1.3,3-2,5-2c1.9,0,3.6,0.7,5,2s2.1,2.9,2.1,4.8
			s-0.7,3.5-2.1,4.8c-1.4,1.3-3,2-5,2S590.3,79.1,588.9,77.7z M590.9,70.1c-0.8,0.8-1.3,1.7-1.3,2.9c0,1.1,0.4,2.1,1.3,2.8
			c0.8,0.8,1.8,1.2,3,1.2s2.2-0.4,3-1.2c0.8-0.8,1.3-1.7,1.3-2.8c0-1.1-0.4-2.1-1.3-2.9c-0.8-0.8-1.8-1.2-3-1.2
			S591.7,69.3,590.9,70.1z"/>
		<path class="st12" d="M616.9,61.6v2.5h-1v12.6h1v2.5h-5.7l-5.3-14.5v12h1v2.5H602v-2.5h1V64.1h-1v-2.5h5.7l5.4,14.7V64.1h-1v-2.5
			H616.9z"/>
		<path class="st12" d="M622.2,66.7v10.1h1.5v2.4H618v-2.4h1.5v-7.7H618v-2.4H622.2z M620.7,65.7c-0.5,0-0.8-0.2-1.1-0.5
			s-0.5-0.7-0.5-1.2c0-0.5,0.2-0.9,0.5-1.2s0.7-0.5,1.1-0.5s0.8,0.2,1.2,0.5c0.3,0.3,0.5,0.7,0.5,1.2c0,0.5-0.2,0.9-0.5,1.2
			C621.5,65.6,621.1,65.7,620.7,65.7z"/>
		<path class="st12" d="M635.8,67.4v-5.3h3.8v2.5h-1v12.2h1v2.5h-3.8v-1c-1.3,0.9-2.7,1.4-4.3,1.4c-1.9,0-3.6-0.7-5-2
			s-2.1-2.9-2.1-4.8s0.7-3.5,2.1-4.8c1.4-1.3,3-2,5-2C633.1,66,634.6,66.5,635.8,67.4z M634.5,75.7c0.8-0.8,1.3-1.7,1.3-2.9
			s-0.4-2.1-1.3-2.9c-0.8-0.8-1.8-1.2-3-1.2s-2.2,0.4-3,1.2c-0.8,0.8-1.3,1.8-1.3,2.9s0.4,2.1,1.3,2.9c0.8,0.8,1.8,1.2,3,1.2
			S633.7,76.5,634.5,75.7z"/>
		<path class="st12" d="M642.4,77.7c-1.4-1.3-2.1-2.9-2.1-4.8s0.7-3.5,2.1-4.8c1.4-1.3,3-2,5-2c1.9,0,3.6,0.7,5,2s2.1,2.9,2.1,4.8
			s-0.7,3.5-2.1,4.8c-1.4,1.3-3,2-5,2S643.7,79.1,642.4,77.7z M644.3,70.1c-0.8,0.8-1.3,1.7-1.3,2.9c0,1.1,0.4,2.1,1.3,2.8
			c0.8,0.8,1.8,1.2,3,1.2s2.2-0.4,3-1.2c0.8-0.8,1.3-1.7,1.3-2.8c0-1.1-0.4-2.1-1.3-2.9c-0.8-0.8-1.8-1.2-3-1.2
			C646.2,68.9,645.2,69.3,644.3,70.1z"/>
	</g>
</g>
</svg>
