<?xml version="1.0" encoding="utf-8"?>
<!-- Generator: Adobe Illustrator 19.2.1, SVG Export Plug-In . SVG Version: 6.00 Build 0)  -->
<svg version="1.1" id="DESIGNED_BY_FREEPIK" xmlns="http://www.w3.org/2000/svg" xmlns:xlink="http://www.w3.org/1999/xlink"
	 x="0px" y="0px" viewBox="0 0 200.7 134" style="enable-background:new 0 0 200.7 134;" xml:space="preserve">
<style type="text/css">
	.st0{fill:#FF5E00;stroke:#FF5E00;stroke-width:0.5;stroke-miterlimit:10;}
	.st1{fill:#FF9104;stroke:#FF9104;stroke-width:0.5;stroke-miterlimit:10;}
	.st2{fill:#FFD01F;stroke:#FFD01F;stroke-width:0.5;stroke-miterlimit:10;}
	.st3{fill:#9FDC57;stroke:#9FDC57;stroke-width:0.5;stroke-miterlimit:10;}
	.st4{fill:#3EC1C9;stroke:#3EC1C9;stroke-width:0.5;stroke-miterlimit:10;}
	.st5{fill:#006DBD;stroke:#006DBD;stroke-width:0.5;stroke-miterlimit:10;}
	.st6{fill:#5932B1;stroke:#5932B1;stroke-width:0.5;stroke-miterlimit:10;}
</style>
<g>
	<path class="st0" d="M7.9,133.5c-0.4,0.1-0.8,0-1.2,0c-1.9,0-3.9,0-5.8,0c-0.6,0-0.6,0-0.6-0.6c0-2.9,0.2-39.5,0.4-42.4
		c0.4-4.2,1.1-8.3,2-12.4c2.7-11.9,7.4-22.9,14.1-33C24,34.2,33,25,44,17.6c10.2-7,21.4-11.9,33.5-14.7c3.5-0.8,7-1.4,10.6-1.9
		c5.7-0.7,11.4-0.9,17.1-0.6c13.7,0.7,26.7,4,39.1,10c10.3,5,19.5,11.7,27.5,19.9c10.9,11.1,18.8,24,23.7,38.7
		c1.8,5.3,3.1,10.8,3.9,16.3c0.7,4.7,1.1,43,1.1,47.7c0,0.1,0,0.2,0,0.4c0,0.3-0.1,0.3-0.3,0.3c-2.6,0-5.1,0-7.7,0h-0.1
		c0-1.6,0-36.9-0.1-38.5c0-0.8-0.1-1.5-0.1-2.3c-0.2-1.6-0.3-3.2-0.5-4.9c-0.2-1.4-0.4-2.8-0.6-4.2c-0.4-2.2-0.9-4.5-1.5-6.7
		c-0.9-3.6-2.1-7.1-3.4-10.5c-1.3-3.3-2.8-6.5-4.4-9.6c-1.1-2.1-2.4-4.2-3.7-6.2c-1.9-3-4-5.8-6.2-8.6c-1.4-1.7-2.8-3.3-4.3-4.9
		c-2.5-2.7-5.2-5.2-8-7.6c-2.5-2.1-5-4-7.7-5.8c-4.2-2.8-8.6-5.3-13.2-7.4c-2.4-1.1-4.9-2.1-7.5-3c-4.2-1.5-8.5-2.7-12.9-3.6
		c-3-0.6-5.9-1-8.9-1.3c-1.6-0.2-3.3-0.3-4.9-0.4c-1.4-0.1-2.7,0-4.1-0.1c-0.8-0.1-1.6,0.1-2.3,0.1c-0.9,0-1.9,0-2.8,0.1
		c-1.6,0.1-3.2,0.2-4.8,0.4c-1.6,0.2-3.3,0.4-4.9,0.6c-2.3,0.4-4.6,0.8-6.9,1.4c-3.9,0.9-7.8,2.1-11.5,3.6c-3.7,1.4-7.2,3-10.7,4.9
		c-2,1.1-4,2.3-6,3.5c-2.5,1.6-5,3.4-7.4,5.2c-2.3,1.8-4.4,3.7-6.5,5.7s-4.2,4.2-6.1,6.4c-1.2,1.4-2.4,2.9-3.6,4.4
		c-1.7,2.2-3.3,4.5-4.7,6.8c-1.2,2-2.4,4-3.5,6c-0.9,1.7-1.8,3.5-2.6,5.2c-1.1,2.3-2,4.7-2.9,7.1c-0.8,2.3-1.5,4.6-2.1,6.9
		c-0.7,2.5-1.2,5.1-1.7,7.6c-0.4,2-0.6,4.1-0.9,6.1c-0.2,1.5-0.3,3.1-0.4,4.6s-0.2,36.5-0.2,38C7.9,133,7.9,133.2,7.9,133.5z"/>
	<path class="st1" d="M7.9,133.5c0-0.3,0-0.5,0-0.8c0-1.5,0.1-36.6,0.2-38c0.1-1.5,0.2-3.1,0.4-4.6C8.7,88.1,9,86,9.4,84
		c0.5-2.6,1-5.1,1.7-7.6c0.6-2.3,1.3-4.6,2.1-6.9c0.9-2.4,1.8-4.8,2.9-7.1c0.8-1.8,1.7-3.5,2.6-5.2c1.1-2.1,2.2-4.1,3.5-6
		c1.5-2.3,3.1-4.6,4.7-6.8c1.1-1.5,2.3-3,3.6-4.4c1.9-2.2,4-4.4,6.1-6.4s4.3-3.9,6.5-5.7c2.4-1.9,4.8-3.6,7.4-5.2
		c1.9-1.3,3.9-2.4,6-3.5c3.5-1.9,7-3.5,10.7-4.9c3.8-1.4,7.6-2.6,11.5-3.6c2.3-0.5,4.6-1,6.9-1.4c1.6-0.3,3.3-0.5,4.9-0.6
		c1.6-0.2,3.2-0.3,4.8-0.4c0.9-0.1,1.9-0.1,2.8-0.1c0.8,0,1.6-0.1,2.3-0.1c1.4,0.1,2.7,0.1,4.1,0.1c1.6,0.1,3.3,0.2,4.9,0.4
		c3,0.3,6,0.8,8.9,1.3c4.4,0.9,8.7,2.1,12.9,3.6c2.5,0.9,5,1.9,7.5,3c4.6,2.1,9,4.6,13.2,7.4c2.7,1.8,5.2,3.8,7.7,5.8
		c2.8,2.4,5.4,4.9,8,7.6c1.5,1.6,2.9,3.2,4.3,4.9c2.2,2.7,4.3,5.6,6.2,8.6c1.3,2,2.5,4.1,3.7,6.2c1.7,3.1,3.1,6.3,4.4,9.6
		c1.4,3.4,2.5,7,3.4,10.5c0.6,2.2,1.1,4.4,1.5,6.7c0.3,1.4,0.5,2.8,0.6,4.2c0.2,1.6,0.4,3.2,0.5,4.9c0.1,0.8,0.1,1.5,0.1,2.3
		c0.1,1.6,0.1,36.9,0.1,38.5h-0.1c-2.5,0-5,0-7.5,0h-0.1c0-1-0.1-35.5-0.1-36.5c0-0.8,0-1.6-0.1-2.4c-0.2-1.7-0.3-3.4-0.5-5.1
		c-0.2-1.6-0.5-3.2-0.8-4.8c-0.4-2.1-0.9-4.2-1.5-6.2c-0.8-2.7-1.6-5.4-2.7-8.1c-1.3-3.3-2.8-6.5-4.5-9.6c-1-1.8-2-3.6-3.1-5.3
		c-1.5-2.3-3-4.5-4.7-6.7c-1.5-1.9-3.1-3.8-4.8-5.6c-2-2.1-4-4.1-6.2-6c-1.4-1.2-2.9-2.5-4.4-3.6c-3.3-2.5-6.8-4.8-10.4-6.8
		c-2.6-1.4-5.3-2.8-8-3.9c-3.4-1.4-6.9-2.6-10.4-3.6c-3.9-1.1-7.9-1.9-11.9-2.4c-1.6-0.2-3.1-0.4-4.7-0.5c-1.9-0.1-3.8-0.2-5.7-0.2
		c-0.6,0-1.1,0-1.7,0.1c-1.1,0.1-2.3,0-3.4,0.1s-2.2,0.1-3.3,0.2c-1.6,0.1-3.2,0.4-4.9,0.6c-2,0.3-4,0.7-6,1.1
		c-3.2,0.7-6.4,1.6-9.5,2.8c-3.9,1.4-7.7,3.1-11.4,5c-2.9,1.5-5.6,3.2-8.3,5.1c-2.8,1.9-5.4,4-7.9,6.2c-1.8,1.6-3.6,3.2-5.2,5
		c-1.1,1.2-2.2,2.4-3.3,3.7c-1.9,2.2-3.6,4.4-5.2,6.8c-2.9,4.1-5.3,8.5-7.4,13C21.4,69,20.2,72,19.2,75c-1.1,3.4-2,6.9-2.6,10.4
		c-0.6,3-1,6.1-1.2,9.2c-0.1,1.9-0.3,37.3-0.3,39.2c-0.2,0-0.4,0-0.6,0c-2,0-4.1,0-6.1,0C8.3,133.5,8.1,133.5,7.9,133.5z"/>
	<path class="st2" d="M15.1,133.5c0-1.9,0.1-37.3,0.3-39.2c0.2-3.1,0.6-6.1,1.2-9.2c0.7-3.5,1.5-7,2.6-10.4c1-3,2.1-6,3.5-8.9
		c2.1-4.6,4.5-8.9,7.4-13c1.6-2.3,3.3-4.6,5.2-6.8c1.1-1.3,2.2-2.5,3.3-3.7c1.6-1.8,3.4-3.4,5.2-5c2.5-2.2,5.2-4.3,7.9-6.2
		c2.7-1.8,5.5-3.5,8.3-5.1c3.7-2,7.5-3.6,11.4-5c3.1-1.1,6.3-2,9.5-2.8c2-0.5,4-0.8,6-1.1c1.6-0.2,3.2-0.4,4.9-0.6
		c1.1-0.1,2.2-0.2,3.3-0.2c1.1-0.1,2.3,0,3.4-0.1c0.6,0,1.1-0.1,1.7-0.1c1.9,0.1,3.8,0.1,5.7,0.2c1.6,0.1,3.1,0.3,4.7,0.5
		c4,0.5,8,1.3,11.9,2.4c3.5,1,7,2.2,10.4,3.6c2.7,1.2,5.4,2.5,8,3.9c3.6,2,7.1,4.3,10.4,6.8c1.5,1.1,2.9,2.4,4.4,3.6
		c2.2,1.9,4.2,3.9,6.2,6c1.7,1.8,3.3,3.7,4.8,5.6c1.7,2.2,3.2,4.4,4.7,6.7c1.1,1.7,2.1,3.5,3.1,5.3c1.7,3.1,3.2,6.3,4.5,9.6
		c1,2.6,1.9,5.4,2.7,8.1c0.6,2.1,1,4.1,1.5,6.2c0.3,1.6,0.6,3.2,0.8,4.8c0.2,1.7,0.4,3.4,0.5,5.1c0.1,0.8,0.1,1.6,0.1,2.4
		c0,1,0.1,35.5,0.1,36.5c-0.2,0-0.3,0-0.5,0c-2.2,0-4.3,0-6.5,0c-0.2,0-0.3,0-0.5,0c-0.1-4-0.5-41.6-1.2-45.6
		c-1.2-7-3.4-13.7-6.5-20.1c-5.2-10.6-12.4-19.7-21.6-27c-8.8-7-18.6-11.8-29.4-14.5c-5.4-1.4-11-2.1-16.6-2.3
		c-3.8-0.1-7.6,0.1-11.3,0.5c-4.7,0.5-9.3,1.5-13.8,2.9c-15.7,5-28.6,14-38.6,27c-6.9,9-11.5,19-14,30c-0.8,3.6-1.4,7.3-1.6,11
		c-0.1,1.5-0.2,36.5-0.2,38c-0.6,0-1.2,0-1.9,0c-1.5,0-3.1,0-4.6,0C15.6,133.5,15.4,133.5,15.1,133.5z"/>
	<path class="st3" d="M22.3,133.5c0.1-1.5,0.1-36.5,0.2-38c0.3-3.7,0.8-7.4,1.6-11c2.5-11,7.1-21.1,14-30c10-13.1,22.9-22.1,38.6-27
		c4.5-1.4,9.1-2.4,13.8-2.9c3.8-0.4,7.5-0.6,11.3-0.5c5.6,0.2,11.1,0.9,16.6,2.3c10.9,2.7,20.7,7.6,29.4,14.5
		c9.2,7.4,16.5,16.4,21.6,27c3.1,6.4,5.2,13.1,6.5,20.1c0.7,4,1.1,41.5,1.2,45.6c-0.1,0-0.3,0-0.4,0c-2.3,0-4.5,0-6.8,0
		c-0.1,0-0.2,0-0.3,0c0-1.4-0.1-36.4-0.2-37.7c-0.2-2.5-0.5-4.9-1-7.3c-1.3-6.8-3.6-13.3-6.8-19.4c-4-7.6-9.2-14.2-15.7-19.9
		c-5.3-4.7-11.3-8.5-17.8-11.4c-8-3.6-16.5-5.5-25.3-5.9c-3.9-0.2-7.8,0-11.7,0.5c-2.6,0.3-5.1,0.8-7.6,1.4
		C76,35.7,69,38.7,62.4,42.8c-5.9,3.7-11.1,8.3-15.7,13.6c-3.5,4.1-6.6,8.6-9.1,13.4c-3.1,6-5.3,12.3-6.6,19
		c-0.7,3.8-1.1,41.2-1.2,45c-1.2,0-2.5,0-3.7,0c-1.1,0-2.2,0-3.3,0C22.6,133.5,22.4,133.5,22.3,133.5z"/>
	<path class="st4" d="M29.9,133.5c0.1-3.8,0.5-41.2,1.2-45c1.3-6.6,3.5-13,6.6-19c2.5-4.8,5.5-9.3,9.1-13.4
		c4.6-5.3,9.8-9.8,15.7-13.6c6.5-4.1,13.5-7.1,21.1-8.9c2.5-0.6,5.1-1.1,7.6-1.4c3.9-0.5,7.8-0.6,11.7-0.5
		c8.8,0.4,17.2,2.4,25.3,5.9c6.5,2.9,12.4,6.7,17.8,11.4c6.4,5.7,11.7,12.3,15.7,19.9c3.2,6.1,5.5,12.6,6.8,19.4
		c0.5,2.4,0.8,4.9,1,7.3c0.1,1.4,0.2,36.4,0.2,37.7c-0.7,0-1.4,0-2,0c-1.7,0-3.5,0-5.2,0c-0.2,0-0.4,0-0.6,0c0-0.1,0-0.2,0-0.3
		c0-1.6-0.2-36.8-0.3-38.4c-0.2-1.8-0.4-3.5-0.8-5.2c-0.7-3.3-1.6-6.6-2.8-9.8c-1.5-4.1-3.5-8.1-5.9-11.8c-1.7-2.6-3.5-5.1-5.6-7.4
		c-2.2-2.5-4.6-4.8-7.2-7s-5.4-4.1-8.3-5.8c-3.3-1.9-6.8-3.5-10.4-4.8c-4.1-1.5-8.4-2.5-12.7-3.1c-2-0.3-4-0.4-6-0.5
		c-1.7-0.1-3.4,0-5.1,0.1c-2.3,0.1-4.6,0.4-6.9,0.7c-2.9,0.5-5.8,1.1-8.7,2c-4.4,1.4-8.6,3.2-12.6,5.6c-4.4,2.6-8.4,5.7-12.1,9.2
		c-1.8,1.7-3.5,3.6-5.1,5.6c-2.6,3.3-4.9,6.7-6.8,10.5c-2.2,4.3-3.9,8.7-5,13.4c-0.6,2.5-1.1,5-1.4,7.5c-0.1,1-0.2,2-0.3,3
		c-0.1,1-0.2,35.6-0.1,36.6c-0.1,0-0.3,0-0.4,0c-2.4,0-4.7,0-7.1,0C30.1,133.5,30,133.5,29.9,133.5z"/>
	<path class="st5" d="M37.7,133.5c-0.1-1,0.1-35.6,0.1-36.6c0.1-1,0.2-2,0.3-3c0.3-2.5,0.8-5,1.4-7.5c1.2-4.7,2.8-9.1,5-13.4
		c1.9-3.7,4.2-7.2,6.8-10.5c1.6-2,3.3-3.8,5.1-5.6c3.7-3.6,7.7-6.6,12.1-9.2c4-2.3,8.2-4.2,12.6-5.6c2.8-0.9,5.7-1.6,8.7-2
		c2.3-0.4,4.6-0.6,6.9-0.7c1.7-0.1,3.4-0.1,5.1-0.1c2,0.1,4,0.3,6,0.5c4.4,0.6,8.6,1.6,12.7,3.1c3.6,1.3,7.1,2.9,10.4,4.8
		c2.9,1.7,5.7,3.6,8.3,5.8c2.6,2.1,5,4.4,7.2,7c2,2.3,3.9,4.8,5.6,7.4c2.4,3.7,4.3,7.6,5.9,11.8c1.2,3.2,2.1,6.4,2.8,9.8
		c0.3,1.7,0.6,3.5,0.8,5.2c0.2,1.6,0.3,36.8,0.3,38.4c0,0.1,0,0.2,0,0.3c-1.1,0-2.1,0-3.2,0c-1.3,0-2.5,0-3.8,0c-0.2,0-0.4,0-0.6,0
		c0.1-0.9-0.1-35.4-0.1-36.3c-0.1-1.4-0.3-2.8-0.5-4.2c-0.4-2.4-0.9-4.8-1.7-7.1c-1.2-4-2.9-7.8-5-11.5c-2-3.4-4.3-6.6-7-9.4
		c-1.1-1.2-2.2-2.3-3.4-3.3c-1.4-1.3-3-2.5-4.5-3.7c-2.1-1.6-4.3-3-6.7-4.2c-2.2-1.2-4.5-2.2-6.9-3c-2.3-0.8-4.7-1.5-7.1-2
		c-1.7-0.4-3.5-0.7-5.3-0.9c-1.2-0.1-2.4-0.2-3.6-0.3c-1.5-0.1-3,0-4.4,0c-0.3,0-0.6,0-0.9,0c-1.1,0.1-2.2,0.2-3.4,0.3
		c-1.2,0.1-2.5,0.3-3.7,0.5c-1.7,0.3-3.4,0.7-5.1,1.2c-2.8,0.8-5.5,1.8-8.1,3.1c-3,1.4-5.8,3-8.4,5c-2.1,1.5-4.1,3.1-5.9,4.9
		c-1,0.9-1.9,1.9-2.8,2.9c-0.8,0.9-1.6,1.8-2.3,2.8c-1.8,2.3-3.5,4.7-4.9,7.3c-1.4,2.6-2.7,5.3-3.7,8.2c-0.7,2-1.3,4-1.7,6
		c-0.3,1.6-0.7,3.2-0.9,4.8c-0.1,0.8-0.2,1.5-0.2,2.3c-0.1,1-0.2,35.6-0.2,36.6c-0.1,0-0.3,0-0.4,0c-2.4,0-4.8,0-7.2,0
		C37.9,133.5,37.8,133.5,37.7,133.5z"/>
	<path class="st6" d="M45.7,133.5c0-1,0.1-35.6,0.2-36.6c0.1-0.8,0.2-1.5,0.2-2.3c0.2-1.6,0.5-3.2,0.9-4.8c0.4-2.1,1-4.1,1.7-6
		c1-2.8,2.3-5.5,3.7-8.2c1.4-2.6,3.1-5,4.9-7.3c0.7-1,1.5-1.9,2.3-2.8c0.9-1,1.8-2,2.8-2.9c1.9-1.8,3.8-3.4,5.9-4.9
		c2.7-1.9,5.5-3.6,8.4-5c2.6-1.2,5.3-2.3,8.1-3.1c1.7-0.5,3.4-0.9,5.1-1.2c1.2-0.2,2.4-0.4,3.7-0.5c1.1-0.1,2.2-0.2,3.4-0.3
		c0.3,0,0.6,0,0.9,0c1.5,0,3,0,4.4,0c1.2,0.1,2.4,0.2,3.6,0.3c1.8,0.2,3.5,0.5,5.3,0.9c2.4,0.5,4.7,1.2,7.1,2c2.4,0.9,4.7,1.9,6.9,3
		c2.3,1.2,4.6,2.6,6.7,4.2c1.6,1.2,3.1,2.4,4.5,3.7c1.2,1.1,2.3,2.2,3.4,3.3c2.7,2.9,5,6,7,9.4c2.1,3.6,3.8,7.4,5,11.5
		c0.7,2.3,1.3,4.7,1.7,7.1c0.2,1.4,0.4,2.8,0.5,4.2c0.1,0.9,0.2,35.4,0.1,36.3c-0.5,0.1-1,0-1.5,0c-1.7,0-3.4,0-5.1,0
		c-0.5,0-0.5,0-0.5-0.5c-0.1-1.7-0.3-37-0.5-38.8c-0.9-5.7-2.7-11.1-5.6-16.1c-5.9-10.2-14.5-17.3-25.6-21.2
		c-3.2-1.1-6.5-1.9-9.9-2.3c-2.9-0.3-5.9-0.4-8.8-0.2c-11.3,0.9-21.1,5.2-29.3,13c-7.2,6.9-11.7,15.2-13.6,24.9
		c-0.4,2.2-0.7,38.1-0.8,40.4c0,0.1,0,0.2,0,0.4s-0.1,0.2-0.3,0.3c-0.1,0-0.2,0-0.2,0c-2.2,0-4.4,0-6.6,0
		C45.8,133.5,45.8,133.5,45.7,133.5z"/>
</g>
</svg>
