<?xml version="1.0" encoding="utf-8"?>
<!-- Generator: Adobe Illustrator 21.0.2, SVG Export Plug-In . SVG Version: 6.00 Build 0)  -->
<svg version="1.1" id="OBJECTS" xmlns="http://www.w3.org/2000/svg" xmlns:xlink="http://www.w3.org/1999/xlink" x="0px" y="0px"
	 viewBox="0 0 205.6 143.3" style="enable-background:new 0 0 205.6 143.3;" xml:space="preserve">
<style type="text/css">
	.st0{fill:#FFD01F;}
	.st1{fill:#FFF358;}
	.st2{fill:#FFFFFF;}
</style>
<g>
	
		<ellipse transform="matrix(0.9991 -4.297484e-02 4.297484e-02 0.9991 -2.9552 5.8224)" class="st0" cx="133.9" cy="71.6" rx="71.6" ry="71.6"/>
	
		<ellipse transform="matrix(0.9991 -4.297478e-02 4.297478e-02 0.9991 -2.9552 5.8223)" class="st1" cx="133.9" cy="71.6" rx="57.2" ry="57.2"/>
</g>
<path class="st2" d="M145.2,81.8c0.4-1.6,0.5-3.2,0.5-4.9l-0.8-6.1c-1.1-3.9-3.1-7.3-5.9-10.1c-1.5-1.2-3.1-2.4-4.6-3.6
	c-3.6-2.1-7.4-3.1-11.6-3.1c-3.2-0.1-6.1,0.5-8.8,2c-2.8,0.9-5.3,2.5-7.4,4.7c-0.2,0.1-0.3,0.3-0.4,0.4c-0.4-1.1-0.9-2.1-1.3-3.2
	c-0.8-1-1.6-2-2.3-3c-1.4-1.5-3-2.5-4.8-3.1c-1.2-0.7-2.4-1-3.8-1c-1.3-0.4-2.7-0.4-4,0c-1.4,0-2.6,0.3-3.8,1
	c-1.3,0.4-2.4,1-3.3,1.9c-0.2,0.1-0.4,0.2-0.5,0.4c0-0.2,0-0.4,0-0.7c-0.2-1.8-0.5-3.7-0.7-5.5c-1-3.5-2.8-6.6-5.4-9.2
	c-1.4-1.1-2.8-2.2-4.2-3.3c-3.3-1.9-6.8-2.8-10.5-2.8c-2.9-0.1-5.6,0.5-8,1.8c-2.6,0.8-4.8,2.3-6.7,4.3c-2,1.9-3.5,4.1-4.3,6.7
	c-1.3,2.5-1.9,5.2-1.8,8c0.1,0.4,0.1,0.9,0.2,1.3c-0.4,0-0.7,0-1.1,0c-2-0.1-3.8,0.3-5.5,1.2c-1.8,0.6-3.3,1.6-4.6,3
	c-1.4,1.3-2.4,2.8-3,4.6c-0.2,0.3-0.3,0.7-0.5,1.1c-3.9-0.8-7.7-0.6-11.6,0.4C6.6,67.2,1.1,74.1,0,81.8H145.2z"/>
</svg>
